<svg xmlns="http://www.w3.org/2000/svg" viewBox="0 0 512 512">
  <rect width="512" height="512" rx="112" fill="#0f1c3f"/>
  <rect width="512" height="512" rx="112" fill="url(#g)"/>
  <defs>
    <linearGradient id="g" x1="0" y1="0" x2="1" y2="1">
      <stop offset="0%" stop-color="#1e3068"/>
      <stop offset="100%" stop-color="#0f1c3f"/>
    </linearGradient>
  </defs>
  <!-- Seedling icon -->
  <path d="M256 360 C256 360 256 240 256 200" stroke="#c45c2a" stroke-width="18" stroke-linecap="round"/>
  <path d="M256 260 C256 260 210 220 190 180 C190 180 240 165 270 195 C300 225 256 260 256 260Z" fill="#1e6b48"/>
  <path d="M256 230 C256 230 300 195 325 155 C325 155 278 138 248 168 C218 198 256 230 256 230Z" fill="#1e6b48" opacity="0.8"/>
  <!-- FIN.AI text -->
  <text x="256" y="420" text-anchor="middle" font-family="serif" font-size="72" font-weight="700" fill="#ffffff" letter-spacing="4">FIN.AI</text>
</svg>
